<?xml version="1.0" encoding="UTF-8"?>
<svg id="Capa_1" data-name="Capa 1" xmlns="http://www.w3.org/2000/svg" viewBox="0 0 257.57 257.57">
  <defs>
    <style>
      .cls-1 {
        fill: #fff;
      }

      .cls-2 {
        fill: none;
        stroke: #fff;
        stroke-miterlimit: 10;
        stroke-width: 8px;
      }
    </style>
  </defs>
  <rect class="cls-2" x="2.79" y="2.41" width="251.99" height="251.99" rx="73.92" ry="73.92"/>
  <path class="cls-1" d="m140.07,111.79h29.36c.26,0,.47.24.43.5-1.68,10.65-3.29,20.8-4.94,31.26-.03.21-.21.36-.43.36h-24.37c-.24,0-.43.19-.43.43v77.89c0,.24-.19.43-.43.43h-33.58c-.24,0-.43-.19-.43-.43v-77.72c0-.24-.19-.43-.43-.43h-27.9c-.24,0-.43-.19-.43-.43v-31.43c0-.24.19-.43.43-.43h27.73c.24,0,.43-.2.43-.43,0-5.97.06-11.47-.02-16.96-.12-8.46.09-16.82,3.16-24.9,6-15.8,19.2-24.5,36.02-23.61,7.86.42,15.73.74,23.59,1.05,1.78.07,3.29.13,3.27,2.58-.07,7.73-.03,15.45-.02,23.86,0,.24-.2.44-.43.43-4.21-.01-8.16-.18-12.1.06-3.27.2-6.66.51-9.72,1.55-5.21,1.77-8.84,5.54-9.08,11.22-.35,7.98-.1,15.99-.09,24.72,0,.24.19.43.43.43Z"/>
</svg>