<?xml version="1.0" encoding="UTF-8"?>
<svg id="Capa_1" data-name="Capa 1" xmlns="http://www.w3.org/2000/svg" viewBox="0 0 257.57 257.57">
  <defs>
    <style>
      .cls-1 {
        fill: #fff;
      }

      .cls-2 {
        fill: none;
        stroke: #fff;
        stroke-miterlimit: 10;
        stroke-width: 8px;
      }
    </style>
  </defs>
  <rect class="cls-2" x="2.41" y="2.41" width="251.99" height="251.99" rx="73.92" ry="73.92"/>
  <g>
    <path class="cls-1" d="m48.21,128.01c0-12.29,0-24.59,0-36.88.02-23.63,19.23-43.06,42.91-43.16,24.72-.11,49.45-.07,74.17,0,24,.06,43.3,19.02,43.5,43.05.21,24.45.21,48.9-.04,73.35-.26,25.25-19.06,43.73-44.38,43.85-23.89.12-47.79.1-71.69,0-25.87-.11-44.49-19.02-44.47-44.97,0-11.74,0-23.48,0-35.23Zm79.98,66.1c12.01,0,24.03.06,36.04-.01,17.73-.11,30.4-12.96,30.4-30.75,0-23.34,0-46.67,0-70.01,0-18.63-12.56-31.31-31.09-31.34-23.21-.03-46.43-.03-69.64.01-17.46.03-31.61,14.16-31.65,31.62-.06,23.06-.05,46.11,0,69.17.04,18.65,12.59,31.23,31.16,31.3,11.6.04,23.2,0,34.79,0Z"/>
    <path class="cls-1" d="m128.54,171.8c-24.15.06-43.65-19.49-43.66-43.76,0-23.89,19.58-43.65,43.35-43.74,23.94-.1,44.17,19.75,44.32,43.45.15,24.11-19.71,43.99-44.01,44.05Zm28.6-43.54c.08-15.74-12.87-28.73-28.65-28.74-15.6,0-28.62,12.8-28.72,28.26-.11,16.1,12.66,29.1,28.66,29.17,15.74.07,28.63-12.81,28.71-28.69Z"/>
    <circle class="cls-1" cx="171.51" cy="85.19" r="9.29"/>
  </g>
</svg>