<?xml version="1.0" encoding="UTF-8"?>
<svg id="Capa_1" data-name="Capa 1" xmlns="http://www.w3.org/2000/svg" viewBox="0 0 257.57 257.57">
  <defs>
    <style>
      .cls-1 {
        fill: #fff;
      }

      .cls-2 {
        fill: none;
        stroke: #fff;
        stroke-miterlimit: 10;
        stroke-width: 8px;
      }
    </style>
  </defs>
  <rect class="cls-2" x="2.79" y="2.41" width="251.99" height="251.99" rx="73.92" ry="73.92"/>
  <path class="cls-1" d="m120.58,138.32c0,.24-.2.44-.44.43-4.16-.04-7.96-.59-11.52.11-12.24,2.43-20.19,13.99-18.41,26.06,1.78,12.07,12.16,20.48,24.59,19.92,12.2-.55,22.02-10.5,22.16-23.02.2-18.65.06-37.3.06-55.95,0-16.58,0-33.16,0-49.74,0-1.39,0-2.77,0-4.48,0-.24.19-.43.43-.43h26.67c.21,0,.4.16.42.37,3.05,22.17,13.88,36.73,38.16,38.35.23.02.4.2.4.43v26.22c0,.23-.17.41-.4.43-13.64,1.09-25.53-3.07-36.93-11.84-.28-.22-.69-.02-.69.34,0,1.84,0,3.09,0,4.33,0,16.99.21,33.99-.05,50.98-.33,21.26-10.01,37.27-29.16,46.45-19.42,9.31-38.43,7.12-55.17-6.48-16.56-13.45-22.29-31.49-16.97-52.02,5.46-21.05,19.79-33.64,41.17-37.76,4.14-.8,8.51-.53,12.76-.43.98.02,2.75,1.34,2.77,2.1.19,8.52.13,17.04.13,25.62Z"/>
</svg>