<?xml version="1.0" encoding="UTF-8"?>
<svg id="Capa_1" data-name="Capa 1" xmlns="http://www.w3.org/2000/svg" viewBox="0 0 257.57 257.57">
  <defs>
    <style>
      .cls-1 {
        fill: #fff;
      }

      .cls-2 {
        fill: none;
        stroke: #fff;
        stroke-miterlimit: 10;
        stroke-width: 8px;
      }
    </style>
  </defs>
  <rect class="cls-2" x="2.79" y="2.66" width="251.99" height="251.99" rx="73.92" ry="73.92"/>
  <path class="cls-1" d="m134.14,70.18c17.23.42,36.24.38,55.15,2.55,12.42,1.43,19.1,7.51,21.23,19.75,3.11,17.85,3.12,35.86,2.17,53.88-.33,6.36-.94,12.71-2.17,18.97-2.09,10.71-9.47,17.58-20.24,19.19-7.07,1.06-14.19,1.51-21.31,1.8-27.01,1.09-54.03,1.06-81.04.02-6.89-.27-13.8-.72-20.66-1.77-11.22-1.72-18.88-9.05-20.74-20.28-2.68-16.24-2.34-32.61-2-48.98.16-7.58.98-15.1,2.01-22.62,1.68-12.29,11.53-18.95,21.66-20.07,21.33-2.37,42.75-2.32,65.92-2.44Zm-21.72,58.29s-.03,0-.04,0c0,7.36-.02,14.72.02,22.08,0,1.13-.58,2.65.7,3.29,1.06.53,2-.6,2.91-1.15,11.79-7.23,23.56-14.48,35.35-21.71,3.67-2.25,3.69-2.43-.13-4.78-11.96-7.37-23.93-14.72-35.91-22.06-.71-.43-1.41-1.32-2.34-.81-.93.51-.56,1.57-.56,2.4-.02,7.58-.01,15.16-.01,22.74Z"/>
</svg>